<svg width="32" height="32" viewBox="0 0 32 32" fill="none" xmlns="http://www.w3.org/2000/svg">
<g clip-path="url(#clip0_557_5336)">
<path d="M16 32C24.8366 32 32 24.8366 32 16C32 7.16344 24.8366 0 16 0C7.16344 0 0 7.16344 0 16C0 24.8366 7.16344 32 16 32Z" fill="#D8D8D8"/>
<path d="M-5.5 0H37.1667V32H-5.5V0Z" fill="#2E42A5"/>
<path d="M-10.2509 29.7138L-0.861935 33.6846L37.3797 4.31708L42.3322 -1.58356L32.2921 -2.91071L16.6942 9.74459L4.13953 18.2713L-10.2509 29.7138Z" fill="white"/>
<path d="M-8.96552 32.4959L-4.18229 34.8002L40.5537 -2.13175H33.8376L-8.96552 32.4959Z" fill="#F50100"/>
<path d="M41.9175 29.7138L32.5286 33.6846L-5.71303 4.31708L-10.6655 -1.58356L-0.62537 -2.91071L14.9725 9.74459L27.5272 18.2713L41.9175 29.7138Z" fill="white"/>
<path d="M41.5972 31.7105L36.8139 34.0148L17.7649 18.2023L12.1172 16.4356L-11.142 -1.56332H-4.42582L18.8204 16.0084L24.9951 18.1268L41.5972 31.7105Z" fill="#F50100"/>
<path d="M19.537 -1.33337L19.5367 12H38.5367V20H19.5367L19.537 33.3333H12.1295L12.1286 20H-6.79663V12H12.1286L12.1295 -1.33337H19.537Z" fill="#F50100" stroke="white" stroke-width="2"/>
</g>
<defs>
<clipPath id="clip0_557_5336">
<path d="M0 16C0 7.16344 7.16344 0 16 0C24.8366 0 32 7.16344 32 16C32 24.8366 24.8366 32 16 32C7.16344 32 0 24.8366 0 16Z" fill="white"/>
</clipPath>
</defs>
</svg>
