<svg width="425" height="733" viewBox="0 0 425 733" fill="none" xmlns="http://www.w3.org/2000/svg">
<path d="M229.899 -45.766C249.471 -34.5652 270.568 -22.5353 285.381 -4.06949C300.194 14.3963 304.644 41.2004 300.079 63.7513C295.009 89.0152 280.003 110.576 263.648 128.658C228.385 167.553 183.907 194.011 142.495 223.993C140.395 225.516 138.624 226.977 136.524 228.5C87.9079 265.468 40.726 308.141 15.332 366.448C-9.08884 422.701 -3.75131 484.466 46.0961 523.505C71.8171 543.619 105.201 548.437 136.062 543.647C218.096 531.299 304.94 494.11 363.502 430.571C377.374 415.581 388.478 393.273 376.876 371.949C370.504 360.089 359.342 351.762 347.291 347.717C320.207 338.329 289.723 348.652 270.555 369.889C251.387 391.126 242.738 422.681 243.855 453.487C246.778 518.705 290.158 573.931 337.215 610.888C452.665 701.644 591.673 712.019 726.075 732.247" stroke="#161616" stroke-miterlimit="10"/>
</svg>
