<svg width="405" height="659" viewBox="0 0 405 659" fill="none" xmlns="http://www.w3.org/2000/svg">
<path d="M575.15 0.834658C576.871 23.3192 578.761 47.5317 571.798 70.1572C564.834 92.7827 545.153 111.515 523.929 120.399C500.176 130.388 473.91 130.077 449.764 126.696C397.78 119.354 350.912 97.4038 302.851 79.9696C300.411 79.0871 298.208 78.4419 295.769 77.5595C237.881 58.086 176.078 43.0027 113.571 54.7273C53.3103 66.1034 5.1967 105.199 0.880431 168.367C-1.3222 200.944 13.435 231.275 34.7255 254.123C91.0034 315.072 170.537 366.055 255.996 378.84C276.189 381.902 300.884 378.565 312.015 356.993C318.252 345.061 318.875 331.149 315.456 318.905C308.018 291.222 282.36 271.793 254.024 267.855C225.689 263.918 194.72 274.478 169.855 292.699C117.53 331.735 96.1867 398.641 92.0262 458.33C81.7472 604.821 151.21 725.675 209.935 848.25" stroke="#161616" stroke-miterlimit="10"/>
</svg>
