<svg width="63" height="63" viewBox="0 0 63 63" fill="none" xmlns="http://www.w3.org/2000/svg">
<path d="M61 1H1V62H61V1Z" fill="#8F8F2D"/>
<path d="M15.2482 43.96L14.5883 40.0241L14.9182 36.2545L16.3482 33.0393L18.3831 28.2719L19.923 24.8904L21.133 22.174L22.1779 18.6262L23.4979 13.1382L25.8628 10.2555L28.4476 9.0914H31.3075L34.8274 10.4218L36.7523 13.0827L38.2922 17.2403L39.2822 21.2317L41.4821 26.5534L43.407 30.711L45.4969 36.1991V40.8556L44.5619 44.7361L42.362 48.5611L39.1172 50.723L35.7623 51.5546L30.6476 51.0002L26.1378 48.3393L23.9378 46.4546L21.6279 46.5654L17.3381 45.5676L15.4682 44.6806L15.2482 43.96Z" fill="#D3D360"/>
<path d="M23.9378 46.4544L22.1779 41.8533V37.8065L23.4429 34.2033L24.9278 31.2098L27.1277 29.1587L30.0426 28.2717L33.0674 28.7706L35.6523 30.6554L37.4673 33.3717L38.2922 36.9196V39.137L36.6423 42.6848L34.8274 44.7359L31.9675 46.4544L27.6227 47.0642H24.3778L23.9378 46.4544Z" fill="#D8B79F"/>
<path d="M62.0511 0H0.0688477V62.4198H61.9961V0H62.0511ZM60.8412 61.2556H1.27879V37.5295C5.56861 40.3012 9.96841 43.1284 14.7532 45.0686C16.1831 49.2817 19.703 52.8849 24.4328 55.0469C27.4027 56.3774 30.6475 57.0426 33.7824 57.0426C36.6972 57.0426 39.6121 56.4328 42.197 55.2686C49.2367 52.0534 55.5614 44.348 60.6212 38.1393C60.7312 38.0284 60.8412 37.9175 60.8962 37.7512V61.2556H60.8412ZM32.4624 46.7317C35.2673 45.8447 37.3572 43.849 38.2922 41.0773C39.3921 37.8066 38.7322 33.9816 36.6423 30.9881C35.1573 28.937 33.0674 27.662 30.8125 27.6066C28.6126 27.5512 26.5227 28.549 24.9278 30.4892C21.7379 34.3697 20.418 41.5762 23.1128 46.1219C20.6929 45.8447 18.2731 45.1795 15.6882 44.1817C15.2482 42.6849 15.0832 41.1327 15.1932 39.5251C15.4682 35.7001 17.1181 32.2631 18.878 28.6044C20.143 25.9436 21.5179 23.2272 22.2329 20.2892C22.3429 19.7348 22.5079 19.2359 22.6179 18.6816C23.2778 15.8544 23.9378 12.8609 26.0827 11.0316C28.2826 9.09133 32.1874 9.09133 34.3874 11.0316C36.3123 12.6946 37.1372 16.1316 37.7972 18.9033C37.9072 19.4577 38.0722 19.9566 38.1822 20.4001C38.8972 23.0609 40.1071 25.5001 41.317 27.8283C43.022 31.1544 44.6169 34.2588 44.8369 37.9175C45.1119 42.6295 43.242 48.2838 38.2922 50.1686C36.0923 51.0002 33.4524 51.0556 30.8675 50.3349C28.9426 49.7806 27.4577 48.7828 25.9177 47.4523C28.2276 47.4523 30.3725 47.3415 32.4624 46.7317ZM24.6528 46.2882C21.6279 42.2969 22.7829 34.924 25.8627 31.2099C27.1827 29.6023 28.9426 28.7153 30.7575 28.7707C32.6274 28.8262 34.4423 29.8794 35.6523 31.6534C37.5222 34.3142 38.1272 37.7512 37.1372 40.6338C36.3123 43.0175 34.5523 44.7914 32.0774 45.5121C29.7675 46.2882 27.1827 46.2882 24.6528 46.2882ZM60.8412 35.9773C60.4562 36.4762 60.0712 36.9197 59.6312 37.474C54.6815 43.5719 48.4667 51.1665 41.647 54.2708C36.5873 56.5437 30.3175 56.4882 24.8728 53.9936C20.8029 52.1643 17.6681 49.1708 16.1831 45.6784C18.988 46.6762 21.6279 47.286 24.2678 47.4523C26.2477 49.3925 28.1176 50.7784 30.7025 51.5545C33.5074 52.386 36.3673 52.3306 38.8422 51.3882C44.3419 49.2817 46.4318 43.1284 46.1568 37.9729C45.9368 34.0925 44.1769 30.711 42.472 27.4403C41.262 25.112 40.0521 22.7838 39.3921 20.2338C39.2821 19.7903 39.1721 19.2359 39.0071 18.737C38.2922 15.799 37.4122 12.1403 35.2123 10.2C32.5174 7.87176 28.0076 7.87176 25.3677 10.2C22.8929 12.3066 22.1779 15.4664 21.5179 18.5153C21.4079 19.0696 21.2979 19.5685 21.1329 20.1229C20.418 22.8946 19.153 25.6109 17.8881 28.161C16.1281 31.7642 14.3682 35.4784 14.0932 39.5251C13.9832 40.9664 14.0932 42.3523 14.3682 43.7382C9.80342 41.7425 5.45861 38.9708 1.33379 36.2545V1.33044H60.8962V35.9773H60.8412Z" fill="#161616"/>
</svg>
