<svg width="360" height="138" viewBox="0 0 360 138" fill="none" xmlns="http://www.w3.org/2000/svg">
<path d="M204.896 50.8586H153.244V102.374H204.896V50.8586Z" fill="#8F8F2D"/>
<path d="M165.51 87.6565L164.941 84.285L165.225 81.0559L166.456 78.3017L168.208 74.2179L169.534 71.3213L170.576 68.9945L171.475 65.9553L172.611 61.2542L174.647 58.785L176.873 57.7878H179.335L182.365 58.9274L184.022 61.2067L185.347 64.7682L186.2 68.1872L188.093 72.7459L189.751 76.3073L191.55 81.0084V84.9972L190.745 88.3213L188.851 91.5978L186.058 93.4498L183.17 94.1621L178.766 93.6872L174.884 91.4079L172.99 89.7933L171.002 89.8883L167.309 89.0336L165.699 88.2738L165.51 87.6565Z" fill="#D3D360"/>
<path d="M172.99 89.7933L171.475 85.852V82.3855L172.564 79.2989L173.842 76.7347L175.736 74.9777L178.246 74.2179L180.85 74.6453L183.075 76.2598L184.637 78.5866L185.347 81.6257V83.5252L183.927 86.5643L182.365 88.3212L179.903 89.7933L176.162 90.3157H173.369L172.99 89.7933Z" fill="#D8B79F"/>
<path d="M141.6 124.173C140.227 122.654 138.617 121.894 136.723 121.894C134.829 121.894 133.22 122.559 131.941 123.841C130.663 125.123 130 126.642 130 128.399C130 130.156 130.663 131.723 131.941 133.006C133.22 134.335 134.782 135 136.534 135H136.77C138.617 135 140.227 134.288 141.552 132.816L141.6 132.768V130.821L141.316 131.249C140.795 132.056 140.085 132.721 139.232 133.196C138.428 133.67 137.433 133.908 136.392 133.908C135.397 133.908 134.356 133.48 133.267 132.626L141.742 124.268L141.6 124.173ZM132.462 131.866C131.61 130.821 131.184 129.634 131.184 128.304C131.184 126.927 131.704 125.645 132.793 124.601C133.882 123.508 135.113 122.986 136.486 122.986C137.812 122.986 139.043 123.413 140.085 124.316L132.462 131.866Z" fill="#161616"/>
<path d="M155.188 124.696C154.715 123.936 154.004 123.271 153.152 122.749C152.11 122.131 150.974 121.846 149.838 121.846C148.039 121.846 146.476 122.511 145.198 123.793C143.92 125.075 143.257 126.642 143.257 128.399C143.257 130.204 143.92 131.723 145.198 133.006C146.476 134.288 148.039 134.953 149.838 134.953C150.927 134.953 152.016 134.668 153.057 134.05C153.957 133.528 154.667 132.911 155.188 132.103V134.668H156.372V114.059H155.188V124.696ZM153.626 132.293C152.537 133.385 151.258 133.908 149.791 133.908C148.323 133.908 147.044 133.385 146.003 132.293C144.961 131.201 144.44 129.919 144.44 128.447C144.44 126.975 144.961 125.693 146.05 124.601C147.092 123.508 148.37 122.986 149.838 122.986C151.306 122.986 152.584 123.556 153.673 124.648C154.762 125.74 155.283 127.022 155.283 128.494C155.235 129.919 154.667 131.201 153.626 132.293Z" fill="#161616"/>
<path d="M169.06 129.397C169.06 130.584 168.587 131.628 167.687 132.531C166.788 133.433 165.699 133.86 164.515 133.86C163.331 133.86 162.29 133.433 161.438 132.531C160.585 131.628 160.159 130.584 160.159 129.397V122.179H158.976V129.444C158.976 130.964 159.496 132.293 160.538 133.385C161.58 134.478 162.905 135 164.468 135C166.504 135 168.066 134.193 169.013 132.673V134.715H170.244V122.179H169.06V129.397Z" fill="#161616"/>
<path d="M178.908 121.941C177.014 121.941 175.452 122.606 174.174 123.888C172.895 125.17 172.232 126.69 172.232 128.447C172.232 130.204 172.895 131.771 174.126 133.053C175.405 134.383 176.92 135 178.671 135H178.908C180.802 135 182.412 134.288 183.69 132.863L183.737 132.816V130.821L183.453 131.249C182.933 132.056 182.222 132.721 181.37 133.196C180.518 133.67 179.666 133.908 178.766 133.908C177.298 133.908 176.02 133.385 174.978 132.293C173.89 131.201 173.369 129.919 173.369 128.447C173.369 126.975 173.89 125.645 174.978 124.601C176.067 123.508 177.346 122.986 178.766 122.986C179.666 122.986 180.565 123.223 181.37 123.698C182.222 124.173 182.885 124.838 183.453 125.645L183.737 126.073V124.078L183.69 124.031C182.412 122.654 180.802 121.941 178.908 121.941Z" fill="#161616"/>
<path d="M197.041 124.743C196.615 123.983 195.953 123.318 195.053 122.844C193.964 122.226 192.828 121.894 191.644 121.894C189.845 121.894 188.282 122.559 187.004 123.841C185.726 125.123 185.063 126.69 185.063 128.447C185.063 130.251 185.726 131.771 187.004 133.053C188.282 134.335 189.845 135 191.644 135C192.828 135 193.917 134.715 194.958 134.098C195.81 133.575 196.473 132.911 196.994 132.103V134.715H198.178V122.179H196.994V124.743H197.041ZM195.526 132.293C194.485 133.385 193.206 133.908 191.739 133.908C190.271 133.908 188.993 133.385 187.904 132.293C186.815 131.201 186.294 129.919 186.294 128.447C186.294 126.975 186.815 125.693 187.904 124.601C188.993 123.508 190.271 122.939 191.739 122.939C193.206 122.939 194.485 123.508 195.526 124.553C196.568 125.645 197.136 126.927 197.136 128.399C197.089 129.919 196.568 131.201 195.526 132.293Z" fill="#161616"/>
<path d="M212.382 124.696C211.908 123.936 211.198 123.271 210.346 122.749C209.304 122.131 208.168 121.846 207.032 121.846C205.233 121.846 203.67 122.511 202.392 123.793C201.114 125.075 200.451 126.642 200.451 128.399C200.451 130.204 201.114 131.723 202.392 133.006C203.67 134.288 205.233 134.953 207.032 134.953C208.121 134.953 209.21 134.668 210.251 134.05C211.151 133.528 211.861 132.911 212.382 132.103V134.668H213.565V114.059H212.382V124.696ZM210.819 132.293C209.73 133.385 208.452 133.908 206.984 133.908C205.517 133.908 204.238 133.385 203.197 132.293C202.155 131.201 201.634 129.919 201.634 128.447C201.634 126.975 202.155 125.693 203.244 124.601C204.286 123.508 205.564 122.986 207.032 122.986C208.499 122.986 209.778 123.556 210.867 124.648C211.956 125.74 212.477 127.022 212.477 128.494C212.477 129.919 211.908 131.201 210.819 132.293Z" fill="#161616"/>
<path d="M227.059 123.793C225.781 122.511 224.218 121.846 222.419 121.846C220.62 121.846 219.057 122.511 217.779 123.793C216.501 125.075 215.838 126.595 215.838 128.352C215.838 130.109 216.501 131.676 217.732 132.958C219.01 134.288 220.525 134.953 222.277 134.953H222.514C224.313 134.953 225.828 134.288 227.059 132.958C228.29 131.628 228.953 130.109 228.953 128.352C229 126.595 228.337 125.075 227.059 123.793ZM226.254 132.293C225.212 133.385 223.934 133.908 222.466 133.908C220.999 133.908 219.72 133.385 218.631 132.293C217.542 131.201 217.022 129.919 217.022 128.447C217.022 126.975 217.542 125.693 218.631 124.601C219.72 123.508 220.999 122.939 222.466 122.939C223.934 122.939 225.212 123.508 226.254 124.553C227.296 125.645 227.864 126.927 227.864 128.399C227.816 129.919 227.296 131.201 226.254 132.293Z" fill="#161616"/>
<path d="M205.801 50H152.442V103.469H205.753V50H205.801ZM204.759 102.472H153.484V82.148C157.176 84.5223 160.964 86.9441 165.083 88.6061C166.314 92.2151 169.344 95.3017 173.416 97.1536C175.973 98.2933 178.766 98.8631 181.465 98.8631C183.974 98.8631 186.484 98.3408 188.709 97.3436C194.769 94.5894 200.214 87.9888 204.57 82.6704C204.664 82.5754 204.759 82.4804 204.806 82.338V102.472H204.759ZM180.329 90.0307C182.743 89.271 184.542 87.5615 185.347 85.1871C186.294 82.3855 185.726 79.1089 183.927 76.5447C182.648 74.7877 180.849 73.6955 178.908 73.648C177.014 73.6006 175.215 74.4553 173.842 76.1173C171.096 79.4413 169.96 85.6145 172.28 89.5084C170.197 89.271 168.113 88.7011 165.888 87.8464C165.509 86.5642 165.367 85.2346 165.462 83.8575C165.699 80.581 167.119 77.6369 168.634 74.5028C169.723 72.2235 170.907 69.8966 171.522 67.3799C171.617 66.905 171.759 66.4777 171.854 66.0028C172.422 63.581 172.99 61.0168 174.836 59.4497C176.73 57.7877 180.092 57.7877 181.986 59.4497C183.643 60.8743 184.353 63.8184 184.921 66.1927C185.016 66.6676 185.158 67.095 185.253 67.4749C185.868 69.7542 186.91 71.8436 187.951 73.838C189.419 76.6872 190.792 79.3464 190.981 82.4804C191.218 86.5168 189.608 91.3603 185.347 92.9749C183.453 93.6872 181.181 93.7346 178.956 93.1173C177.298 92.6425 176.02 91.7877 174.694 90.648C176.683 90.648 178.529 90.5531 180.329 90.0307ZM173.605 89.6508C171.001 86.2318 171.996 79.9162 174.647 76.7346C175.783 75.3575 177.298 74.5978 178.861 74.6453C180.471 74.6927 182.033 75.595 183.075 77.1145C184.684 79.3939 185.205 82.338 184.353 84.8073C183.643 86.8492 182.128 88.3687 179.997 88.986C178.009 89.6508 175.783 89.6508 173.605 89.6508ZM204.759 80.8184C204.428 81.2458 204.096 81.6257 203.717 82.1006C199.456 87.324 194.106 93.8296 188.235 96.4888C183.879 98.4358 178.482 98.3883 173.795 96.2514C170.291 94.6844 167.593 92.1201 166.314 89.1285C168.729 89.9832 171.001 90.5056 173.274 90.648C174.978 92.3101 176.588 93.4972 178.813 94.162C181.228 94.8743 183.69 94.8268 185.821 94.0196C190.555 92.2151 192.354 86.9441 192.118 82.5279C191.928 79.2039 190.413 76.3073 188.945 73.5056C187.904 71.5112 186.862 69.5168 186.294 67.3324C186.199 66.9525 186.105 66.4777 185.963 66.0503C185.347 63.5335 184.59 60.3994 182.696 58.7374C180.376 56.743 176.494 56.743 174.221 58.7374C172.09 60.5419 171.475 63.2486 170.907 65.8603C170.812 66.3352 170.717 66.7626 170.575 67.2374C169.96 69.6117 168.871 71.9385 167.782 74.1229C166.267 77.2095 164.752 80.3911 164.515 83.8575C164.42 85.0922 164.515 86.2793 164.752 87.4665C160.822 85.757 157.082 83.3827 153.531 81.0559V51.1397H204.806V80.8184H204.759Z" fill="#161616"/>
<path d="M-46.585 134.786C-41.6528 135.894 -36.3428 137.097 -31.0985 136.284C-25.8542 135.471 -21.0623 131.71 -18.4051 127.29C-15.4211 122.344 -14.6407 116.507 -14.6099 111.041C-14.5573 99.2717 -17.911 88.1651 -20.2242 76.9396C-20.3411 76.3699 -20.413 75.8604 -20.5298 75.2907C-22.9776 61.8196 -24.325 47.6219 -19.7026 34.1348C-15.2302 21.1349 -5.00144 11.7261 9.15078 12.8114C16.4488 13.3763 22.6998 17.6308 27.0797 23.0926C38.7804 37.548 47.518 56.84 47.5903 76.2111C47.6167 80.7896 46.0778 86.1598 40.9323 87.9314C38.0837 88.929 34.9774 88.6173 32.372 87.463C26.4715 84.9178 22.9913 78.5976 23.0341 72.1845C23.077 65.7714 26.4211 59.2431 31.2671 54.3164C41.619 43.9713 57.151 41.4004 70.5266 42.4078C103.356 44.865 127.919 64.1825 153.211 81.1736" stroke="#161616" stroke-miterlimit="10"/>
<path d="M205 81.5C214.333 71.5 232 53.4634 264 48C296 42.5366 393 72.5 381.5 1" stroke="#161616"/>
</svg>
