<svg width="115" height="100" viewBox="0 0 115 100" fill="none" xmlns="http://www.w3.org/2000/svg">
<g clip-path="url(#clip0_806_2205)">
<path d="M86.9998 1.12158H26.9998V62.1216H86.9998V1.12158Z" fill="#8F8F2D"/>
<path d="M41.248 44.0816L40.5881 40.1457L40.9181 36.3761L42.348 33.1609L44.3829 28.3935L45.9228 25.0119L47.1328 22.2956L48.1777 18.7478L49.4977 13.2597L51.8626 10.3771L54.4475 9.21297H57.3073L60.8272 10.5434L62.7521 13.2043L64.292 17.3619L65.282 21.3532L67.4819 26.675L69.4068 30.8326L71.4967 36.3207V40.9772L70.5618 44.8576L68.3619 48.6826L65.117 50.8446L61.7621 51.6761L56.6474 51.1218L52.1376 48.4609L49.9377 46.5761L47.6278 46.687L43.338 45.6892L41.468 44.8022L41.248 44.0816Z" fill="#D3D360"/>
<path d="M49.9377 46.576L48.1777 41.9749V37.9281L49.4427 34.3249L50.9276 31.3314L53.1275 29.2803L56.0424 28.3933L59.0673 28.8922L61.6521 30.777L63.4671 33.4933L64.292 37.0412V39.2586L62.6421 42.8064L60.8272 44.8575L57.9673 46.576L53.6225 47.1858H50.3776L49.9377 46.576Z" fill="#D8B79F"/>
<path d="M13.4742 86.7111C11.8793 84.9372 10.0094 84.0502 7.80948 84.0502C5.60957 84.0502 3.73965 84.8263 2.25472 86.3231C0.769783 87.8198 -0.000183105 89.5937 -0.000183105 91.6448C-0.000183105 93.6959 0.769783 95.5253 2.25472 97.022C3.73965 98.5742 5.55457 99.3503 7.58949 99.3503H7.86447C10.0094 99.3503 11.8793 98.5188 13.4192 96.8003L13.4742 96.7448V94.472L13.1442 94.9709C12.5393 95.9133 11.7143 96.6894 10.7243 97.2438C9.78939 97.7981 8.63444 98.0753 7.42449 98.0753C6.26954 98.0753 5.0596 97.5764 3.79465 96.5785L13.6392 86.822L13.4742 86.7111ZM2.85969 95.6916C1.86974 94.472 1.37476 93.0861 1.37476 91.534C1.37476 89.9263 1.97973 88.4296 3.24468 87.21C4.50962 85.935 5.93956 85.3252 7.53449 85.3252C9.07442 85.3252 10.5044 85.8242 11.7143 86.8774L2.85969 95.6916Z" fill="#161616"/>
<path d="M29.2586 87.3207C28.7086 86.4338 27.8836 85.6577 26.8937 85.0479C25.6837 84.3272 24.3638 83.9946 23.0438 83.9946C20.9539 83.9946 19.139 84.7707 17.6541 86.2675C16.1691 87.7642 15.3992 89.5936 15.3992 91.6446C15.3992 93.7512 16.1691 95.5251 17.6541 97.0218C19.139 98.5186 20.9539 99.2947 23.0438 99.2947C24.3088 99.2947 25.5737 98.9621 26.7837 98.2414C27.8286 97.6316 28.6536 96.911 29.2586 95.9686V98.9621H30.6335V74.9033H29.2586V87.3207ZM27.4436 96.1903C26.1787 97.4653 24.6938 98.0751 22.9888 98.0751C21.2839 98.0751 19.799 97.4653 18.589 96.1903C17.3791 94.9153 16.7741 93.4186 16.7741 91.7001C16.7741 89.9816 17.3791 88.4849 18.644 87.2099C19.854 85.9348 21.3389 85.3251 23.0438 85.3251C24.7488 85.3251 26.2337 85.9903 27.4986 87.2653C28.7636 88.5403 29.3686 90.037 29.3686 91.7555C29.3136 93.4186 28.6536 94.9153 27.4436 96.1903Z" fill="#161616"/>
<path d="M45.3728 92.8088C45.3728 94.1947 44.8228 95.4143 43.7779 96.4675C42.7329 97.5208 41.468 98.0197 40.093 98.0197C38.7181 98.0197 37.5082 97.5208 36.5182 96.4675C35.5282 95.4143 35.0333 94.1947 35.0333 92.8088V84.3827H33.6583V92.8643C33.6583 94.6382 34.2633 96.1904 35.4732 97.4654C36.6832 98.7404 38.2231 99.3502 40.0381 99.3502C42.4029 99.3502 44.2179 98.4078 45.3178 96.6338V99.0175H46.7478V84.3827H45.3728V92.8088Z" fill="#161616"/>
<path d="M56.8123 84.1055C54.6124 84.1055 52.7975 84.8816 51.3126 86.3784C49.8276 87.8751 49.0577 89.649 49.0577 91.7001C49.0577 93.7512 49.8276 95.5806 51.2576 97.0773C52.7425 98.6295 54.5024 99.3501 56.5374 99.3501H56.8123C59.0122 99.3501 60.8822 98.5186 62.3671 96.8556L62.4221 96.8001V94.4719L62.0921 94.9708C61.4871 95.9132 60.6622 96.6893 59.6722 97.2436C58.6823 97.7979 57.6923 98.0751 56.6473 98.0751C54.9424 98.0751 53.4575 97.4653 52.2475 96.1903C50.9826 94.9153 50.3776 93.4186 50.3776 91.7001C50.3776 89.9816 50.9826 88.4295 52.2475 87.2099C53.5125 85.9349 54.9974 85.3251 56.6473 85.3251C57.6923 85.3251 58.7373 85.6023 59.6722 86.1566C60.6622 86.711 61.4321 87.4871 62.0921 88.4295L62.4221 88.9284V86.6001L62.3671 86.5447C60.8822 84.937 59.0122 84.1055 56.8123 84.1055Z" fill="#161616"/>
<path d="M77.8764 87.3763C77.3815 86.4894 76.6115 85.7133 75.5665 85.1589C74.3016 84.4383 72.9816 84.0502 71.6067 84.0502C69.5168 84.0502 67.7019 84.8263 66.2169 86.3231C64.732 87.8198 63.962 89.6492 63.962 91.7003C63.962 93.8068 64.732 95.5807 66.2169 97.0775C67.7019 98.5742 69.5168 99.3503 71.6067 99.3503C72.9816 99.3503 74.2466 99.0177 75.4565 98.297C76.4465 97.6872 77.2165 96.9111 77.8214 95.9688V99.0177H79.1964V84.3828H77.8214V87.3763H77.8764ZM76.1165 96.1905C74.9066 97.4655 73.4216 98.0753 71.7167 98.0753C70.0118 98.0753 68.5268 97.4655 67.2619 96.1905C65.9969 94.9155 65.392 93.4187 65.392 91.7003C65.392 89.9818 65.9969 88.485 67.2619 87.21C68.5268 85.935 70.0118 85.2698 71.7167 85.2698C73.4216 85.2698 74.9066 85.935 76.1165 87.1546C77.3265 88.4296 77.9864 89.9263 77.9864 91.6448C77.9314 93.4187 77.3265 94.9155 76.1165 96.1905Z" fill="#161616"/>
<path d="M95.6956 87.3207C95.1457 86.4338 94.3207 85.6577 93.3307 85.0479C92.1208 84.3272 90.8008 83.9946 89.4809 83.9946C87.391 83.9946 85.5761 84.7707 84.0911 86.2675C82.6062 87.7642 81.8362 89.5936 81.8362 91.6446C81.8362 93.7512 82.6062 95.5251 84.0911 97.0218C85.5761 98.5186 87.391 99.2947 89.4809 99.2947C90.7459 99.2947 92.0108 98.9621 93.2207 98.2414C94.2657 97.6316 95.0907 96.911 95.6956 95.9686V98.9621H97.0706V74.9033H95.6956V87.3207ZM93.8807 96.1903C92.6158 97.4653 91.1308 98.0751 89.4259 98.0751C87.721 98.0751 86.2361 97.4653 85.0261 96.1903C83.8162 94.9153 83.2112 93.4186 83.2112 91.7001C83.2112 89.9816 83.8162 88.4849 85.0811 87.2099C86.291 85.9348 87.776 85.3251 89.4809 85.3251C91.1858 85.3251 92.6708 85.9903 93.9357 87.2653C95.2007 88.5403 95.8056 90.037 95.8056 91.7555C95.8056 93.4186 95.1457 94.9153 93.8807 96.1903Z" fill="#161616"/>
<path d="M112.745 86.2675C111.26 84.7707 109.445 83.9946 107.355 83.9946C105.265 83.9946 103.45 84.7707 101.965 86.2675C100.48 87.7642 99.7105 89.5381 99.7105 91.5892C99.7105 93.6403 100.48 95.4697 101.91 96.9664C103.395 98.5186 105.155 99.2947 107.19 99.2947H107.465C109.555 99.2947 111.315 98.5186 112.745 96.9664C114.175 95.4142 114.945 93.6403 114.945 91.5892C115 89.5381 114.23 87.7642 112.745 86.2675ZM111.81 96.1903C110.6 97.4653 109.115 98.0751 107.41 98.0751C105.705 98.0751 104.22 97.4653 102.955 96.1903C101.69 94.9153 101.085 93.4186 101.085 91.7001C101.085 89.9816 101.69 88.4849 102.955 87.2099C104.22 85.9349 105.705 85.2696 107.41 85.2696C109.115 85.2696 110.6 85.9348 111.81 87.1544C113.02 88.4294 113.68 89.9262 113.68 91.6446C113.625 93.4186 113.02 94.9153 111.81 96.1903Z" fill="#161616"/>
<path d="M88.051 0.121582H26.0687V62.5413H87.996V0.121582H88.051ZM86.841 61.3772H27.2786V37.651C31.5684 40.4228 35.9682 43.25 40.753 45.1902C42.183 49.4033 45.7028 53.0065 50.4326 55.1685C53.4025 56.4989 56.6473 57.1642 59.7822 57.1642C62.6971 57.1642 65.6119 56.5544 68.1968 55.3902C75.2365 52.175 81.5612 44.4695 86.621 38.2608C86.731 38.15 86.841 38.0391 86.896 37.8728V61.3772H86.841ZM58.4622 46.8532C61.2671 45.9663 63.357 43.9706 64.292 41.1989C65.3919 37.9282 64.732 34.1032 62.6421 31.1097C61.1571 29.0586 59.0672 27.7836 56.8123 27.7282C54.6124 27.6728 52.5225 28.6706 50.9276 30.6108C47.7377 34.4913 46.4178 41.6978 49.1127 46.2435C46.6928 45.9663 44.2729 45.3011 41.688 44.3032C41.248 42.8065 41.083 41.2543 41.193 39.6467C41.468 35.8217 43.1179 32.3847 44.8778 28.726C46.1428 26.0651 47.5177 23.3488 48.2327 20.4108C48.3427 19.8564 48.5077 19.3575 48.6177 18.8032C49.2777 15.976 49.9376 12.9825 52.0825 11.1531C54.2824 9.21291 58.1873 9.21291 60.3872 11.1531C62.3121 12.8162 63.137 16.2532 63.797 19.0249C63.907 19.5793 64.072 20.0782 64.182 20.5216C64.897 23.1825 66.1069 25.6217 67.3169 27.9499C69.0218 31.276 70.6167 34.3804 70.8367 38.0391C71.1117 42.7511 69.2418 48.4054 64.292 50.2902C62.0921 51.1217 59.4522 51.1772 56.8673 50.4565C54.9424 49.9022 53.4575 48.9043 51.9175 47.5739C54.2274 47.5739 56.3723 47.463 58.4622 46.8532ZM50.6526 46.4098C47.6277 42.4185 48.7827 35.0456 51.8625 31.3315C53.1825 29.7238 54.9424 28.8369 56.7573 28.8923C58.6272 28.9478 60.4422 30.001 61.6521 31.7749C63.522 34.4358 64.127 37.8728 63.137 40.7554C62.3121 43.1391 60.5522 44.913 58.0773 45.6337C55.7674 46.4098 53.1825 46.4098 50.6526 46.4098ZM86.841 36.0989C86.456 36.5978 86.071 37.0413 85.6311 37.5956C80.6813 43.6935 74.4665 51.288 67.6468 54.3924C62.5871 56.6652 56.3173 56.6098 50.8726 54.1152C46.8028 52.2859 43.6679 49.2924 42.183 45.8C44.9878 46.7978 47.6277 47.4076 50.2676 47.5739C52.2475 49.5141 54.1174 50.9 56.7023 51.6761C59.5072 52.5076 62.3671 52.4522 64.842 51.5098C70.3417 49.4033 72.4316 43.25 72.1567 38.0945C71.9367 34.2141 70.1767 30.8325 68.4718 27.5619C67.2619 25.2336 66.0519 22.9053 65.3919 20.3553C65.282 19.9119 65.172 19.3575 65.007 18.8586C64.292 15.9205 63.412 12.2618 61.2121 10.3216C58.5173 7.99335 54.0074 7.99335 51.3676 10.3216C48.8927 12.4281 48.1777 15.5879 47.5177 18.6369C47.4077 19.1912 47.2977 19.6901 47.1327 20.2445C46.4178 23.0162 45.1528 25.7325 43.8879 28.2825C42.128 31.8858 40.368 35.6 40.0931 39.6467C39.9831 41.088 40.0931 42.4739 40.368 43.8598C35.8032 41.8641 31.4584 39.0924 27.3336 36.376V1.45202H86.896V36.0989H86.841Z" fill="#161616"/>
</g>
<defs>
<clipPath id="clip0_806_2205">
<rect width="115" height="99.2286" fill="white" transform="translate(-0.000183105 0.121582)"/>
</clipPath>
</defs>
</svg>
