<svg width="378" height="408" viewBox="0 0 378 408" fill="none" xmlns="http://www.w3.org/2000/svg">
<path d="M377.451 21.9528C360.999 13.1534 343.295 3.64884 323.841 1.37812C304.387 -0.89259 283.64 7.76513 269.836 20.8743C254.353 35.5299 245.831 55.5235 240.341 74.9346C228.568 116.746 229.563 159.554 226.74 201.76C226.595 203.902 226.349 205.785 226.204 207.926C221.649 258.253 212.465 310.08 182.746 353.503C154.04 395.341 108.394 418.739 59.1226 400.946C33.7198 391.752 15.6732 370.465 5.47076 346.726C-21.9181 283.789 -34.0061 206.566 -15.1935 137.592C-10.7799 121.28 -0.0194246 103.693 20.0271 102.457C31.1417 101.713 41.8839 105.88 50.0151 112.55C68.4974 127.412 74.6548 153.32 68.189 176.089C61.7232 198.858 43.4015 218.787 21.314 231.541C-25.6917 258.148 -83.4699 252.002 -130.055 235.251C-244.409 194.192 -312.763 101.299 -386 15.9631" stroke="#161616" stroke-miterlimit="10"/>
</svg>
