<svg width="382" height="493" viewBox="0 0 382 493" fill="none" xmlns="http://www.w3.org/2000/svg">
<path d="M-61.3838 0.987267C-96.7086 37.4096 -110.604 86.7852 -83.407 131.557C-69.3648 154.636 -44.9257 168.11 -19.636 173.41C47.4779 187.793 125.566 184.35 189.449 152.251C204.563 144.695 219.671 130.665 216.913 110.771C215.442 99.7289 209.23 90.0245 201.081 83.3753C182.854 68.202 156.24 67.2967 135.202 78.1433C114.164 88.99 98.2582 110.895 90.1311 135.071C77.1021 168.812 64.0439 249.995 116.044 304.795C181.044 373.295 226.619 317.795 201.081 294.295C175.544 270.795 115.657 303.679 129.544 361.295C153.044 458.795 268.044 421.795 381.544 491.795" stroke="#161616" stroke-miterlimit="10"/>
</svg>
