<svg width="315" height="114" viewBox="0 0 315 114" fill="none" xmlns="http://www.w3.org/2000/svg">
<path d="M-44.585 110.785C-39.6528 111.894 -34.3428 113.097 -29.0985 112.284C-23.8542 111.471 -19.0623 107.71 -16.4051 103.29C-13.4211 98.3435 -12.6407 92.5066 -12.6099 87.0409C-12.5573 75.2717 -15.911 64.165 -18.2242 52.9396C-18.3411 52.3698 -18.413 51.8604 -18.5298 51.2906C-20.9776 37.8195 -22.325 23.6218 -17.7026 10.1348C-13.2302 -2.8651 -3.00144 -12.2739 11.1508 -11.1886C18.4488 -10.6237 24.6998 -6.36922 29.0797 -0.90739C40.7804 13.548 49.518 32.84 49.5903 52.2111C49.6167 56.7896 48.0778 62.1598 42.9323 63.9314C40.0837 64.929 36.9774 64.6173 34.372 63.463C28.4715 60.9178 24.9913 54.5976 25.0341 48.1844C25.077 41.7713 28.4211 35.2431 33.2671 30.3164C43.619 19.9712 59.151 17.4004 72.5266 18.4077C105.356 20.865 129.919 40.1825 155.211 57.1736" stroke="#161616" stroke-miterlimit="10"/>
<path d="M205 57.5C214.333 47.5 232.5 20.5 264 24C284.489 26.2766 323 40.5 311.5 -31" stroke="#161616"/>
<path d="M205.896 25.8586H154.244V77.3738H205.896V25.8586Z" fill="#8F8F2D"/>
<path d="M166.51 62.6564L165.941 59.2849L166.225 56.0559L167.456 53.3017L169.208 49.2179L170.534 46.3212L171.576 43.9944L172.475 40.9553L173.611 36.2542L175.647 33.7849L177.873 32.7877H180.335L183.365 33.9274L185.022 36.2067L186.347 39.7682L187.2 43.1872L189.093 47.7458L190.751 51.3073L192.55 56.0084V59.9972L191.745 63.3212L189.851 66.5978L187.058 68.4497L184.17 69.162L179.766 68.6872L175.884 66.4078L173.99 64.7933L172.002 64.8883L168.309 64.0335L166.699 63.2738L166.51 62.6564Z" fill="#D3D360"/>
<path d="M173.99 64.7933L172.475 60.852V57.3855L173.564 54.2989L174.842 51.7347L176.736 49.9777L179.246 49.2179L181.85 49.6453L184.075 51.2598L185.637 53.5866L186.347 56.6257V58.5252L184.927 61.5643L183.365 63.3212L180.903 64.7933L177.162 65.3157H174.369L173.99 64.7933Z" fill="#D8B79F"/>
<path d="M142.6 99.1733C141.227 97.6537 139.617 96.8939 137.723 96.8939C135.829 96.8939 134.22 97.5587 132.941 98.8409C131.663 100.123 131 101.643 131 103.4C131 105.156 131.663 106.724 132.941 108.006C134.22 109.335 135.782 110 137.534 110H137.77C139.617 110 141.227 109.288 142.552 107.816L142.6 107.768V105.821L142.316 106.249C141.795 107.056 141.085 107.721 140.232 108.196C139.428 108.67 138.433 108.908 137.392 108.908C136.397 108.908 135.356 108.481 134.267 107.626L142.742 99.2682L142.6 99.1733ZM133.462 106.866C132.61 105.821 132.184 104.634 132.184 103.305C132.184 101.927 132.704 100.645 133.793 99.6006C134.882 98.5085 136.113 97.9861 137.486 97.9861C138.812 97.9861 140.043 98.4135 141.085 99.3157L133.462 106.866Z" fill="#161616"/>
<path d="M156.188 99.6956C155.715 98.9358 155.004 98.271 154.152 97.7487C153.11 97.1313 151.974 96.8464 150.838 96.8464C149.039 96.8464 147.476 97.5112 146.198 98.7933C144.92 100.075 144.257 101.643 144.257 103.399C144.257 105.204 144.92 106.724 146.198 108.006C147.476 109.288 149.039 109.953 150.838 109.953C151.927 109.953 153.016 109.668 154.057 109.05C154.957 108.528 155.667 107.911 156.188 107.103V109.668H157.372V89.0587H156.188V99.6956ZM154.626 107.293C153.537 108.386 152.258 108.908 150.791 108.908C149.323 108.908 148.044 108.386 147.003 107.293C145.961 106.201 145.44 104.919 145.44 103.447C145.44 101.975 145.961 100.693 147.05 99.6006C148.092 98.5084 149.37 97.9861 150.838 97.9861C152.306 97.9861 153.584 98.5559 154.673 99.6481C155.762 100.74 156.283 102.022 156.283 103.494C156.235 104.919 155.667 106.201 154.626 107.293Z" fill="#161616"/>
<path d="M170.06 104.397C170.06 105.584 169.587 106.628 168.687 107.531C167.788 108.433 166.699 108.86 165.515 108.86C164.331 108.86 163.29 108.433 162.438 107.531C161.585 106.628 161.159 105.584 161.159 104.397V97.1787H159.976V104.444C159.976 105.964 160.496 107.293 161.538 108.385C162.58 109.478 163.905 110 165.468 110C167.504 110 169.066 109.193 170.013 107.673V109.715H171.244V97.1787H170.06V104.397Z" fill="#161616"/>
<path d="M179.908 96.9414C178.014 96.9414 176.452 97.6062 175.174 98.8883C173.895 100.17 173.232 101.69 173.232 103.447C173.232 105.204 173.895 106.771 175.126 108.053C176.405 109.383 177.92 110 179.671 110H179.908C181.802 110 183.412 109.288 184.69 107.863L184.737 107.816V105.821L184.453 106.249C183.933 107.056 183.222 107.721 182.37 108.196C181.518 108.67 180.666 108.908 179.766 108.908C178.298 108.908 177.02 108.386 175.978 107.293C174.89 106.201 174.369 104.919 174.369 103.447C174.369 101.975 174.89 100.645 175.978 99.6006C177.067 98.5084 178.346 97.9861 179.766 97.9861C180.666 97.9861 181.565 98.2235 182.37 98.6984C183.222 99.1732 183.885 99.8381 184.453 100.645L184.737 101.073V99.0783L184.69 99.0308C183.412 97.6537 181.802 96.9414 179.908 96.9414Z" fill="#161616"/>
<path d="M198.041 99.7431C197.615 98.9833 196.953 98.3185 196.053 97.8436C194.964 97.2263 193.828 96.8939 192.644 96.8939C190.845 96.8939 189.282 97.5587 188.004 98.8409C186.726 100.123 186.063 101.69 186.063 103.447C186.063 105.251 186.726 106.771 188.004 108.053C189.282 109.335 190.845 110 192.644 110C193.828 110 194.917 109.715 195.958 109.098C196.81 108.575 197.473 107.911 197.994 107.103V109.715H199.178V97.1788H197.994V99.7431H198.041ZM196.526 107.293C195.485 108.386 194.206 108.908 192.739 108.908C191.271 108.908 189.993 108.386 188.904 107.293C187.815 106.201 187.294 104.919 187.294 103.447C187.294 101.975 187.815 100.693 188.904 99.6006C189.993 98.5085 191.271 97.9386 192.739 97.9386C194.206 97.9386 195.485 98.5084 196.526 99.5531C197.568 100.645 198.136 101.927 198.136 103.4C198.089 104.919 197.568 106.201 196.526 107.293Z" fill="#161616"/>
<path d="M213.382 99.6956C212.908 98.9358 212.198 98.271 211.346 97.7487C210.304 97.1313 209.168 96.8464 208.032 96.8464C206.233 96.8464 204.67 97.5112 203.392 98.7933C202.114 100.075 201.451 101.643 201.451 103.399C201.451 105.204 202.114 106.724 203.392 108.006C204.67 109.288 206.233 109.953 208.032 109.953C209.121 109.953 210.21 109.668 211.251 109.05C212.151 108.528 212.861 107.911 213.382 107.103V109.668H214.565V89.0587H213.382V99.6956ZM211.819 107.293C210.73 108.386 209.452 108.908 207.984 108.908C206.517 108.908 205.238 108.386 204.197 107.293C203.155 106.201 202.634 104.919 202.634 103.447C202.634 101.975 203.155 100.693 204.244 99.6006C205.286 98.5084 206.564 97.9861 208.032 97.9861C209.499 97.9861 210.778 98.5559 211.867 99.6481C212.956 100.74 213.477 102.022 213.477 103.494C213.477 104.919 212.908 106.201 211.819 107.293Z" fill="#161616"/>
<path d="M228.059 98.7934C226.781 97.5112 225.218 96.8464 223.419 96.8464C221.62 96.8464 220.057 97.5112 218.779 98.7934C217.501 100.075 216.838 101.595 216.838 103.352C216.838 105.109 217.501 106.676 218.732 107.958C220.01 109.288 221.525 109.953 223.277 109.953H223.514C225.313 109.953 226.828 109.288 228.059 107.958C229.29 106.629 229.953 105.109 229.953 103.352C230 101.595 229.337 100.075 228.059 98.7934ZM227.254 107.293C226.212 108.386 224.934 108.908 223.466 108.908C221.999 108.908 220.72 108.386 219.631 107.293C218.542 106.201 218.022 104.919 218.022 103.447C218.022 101.975 218.542 100.693 219.631 99.6006C220.72 98.5084 221.999 97.9386 223.466 97.9386C224.934 97.9386 226.212 98.5084 227.254 99.5531C228.296 100.645 228.864 101.927 228.864 103.4C228.816 104.919 228.296 106.201 227.254 107.293Z" fill="#161616"/>
<path d="M206.801 25H153.442V78.4693H206.753V25H206.801ZM205.759 77.4721H154.483V57.148C158.176 59.5223 161.964 61.9441 166.083 63.6061C167.314 67.2151 170.344 70.3017 174.416 72.1536C176.973 73.2933 179.766 73.8631 182.465 73.8631C184.974 73.8631 187.483 73.3408 189.709 72.3436C195.769 69.5894 201.214 62.9888 205.57 57.6704C205.664 57.5754 205.759 57.4804 205.806 57.338V77.4721H205.759ZM181.329 65.0307C183.743 64.271 185.542 62.5615 186.347 60.1872C187.294 57.3855 186.726 54.1089 184.927 51.5447C183.648 49.7877 181.849 48.6955 179.908 48.648C178.014 48.6006 176.215 49.4553 174.842 51.1173C172.096 54.4413 170.96 60.6145 173.28 64.5084C171.197 64.2709 169.113 63.7011 166.888 62.8464C166.509 61.5642 166.367 60.2346 166.462 58.8575C166.699 55.581 168.119 52.6369 169.634 49.5028C170.723 47.2235 171.907 44.8966 172.522 42.3799C172.617 41.905 172.759 41.4777 172.854 41.0028C173.422 38.581 173.99 36.0168 175.836 34.4497C177.73 32.7877 181.092 32.7877 182.986 34.4497C184.643 35.8743 185.353 38.8184 185.921 41.1927C186.016 41.6676 186.158 42.095 186.253 42.4749C186.868 44.7542 187.91 46.8436 188.951 48.838C190.419 51.6872 191.792 54.3464 191.981 57.4804C192.218 61.5168 190.608 66.3603 186.347 67.9749C184.453 68.6872 182.181 68.7346 179.956 68.1173C178.298 67.6425 177.02 66.7877 175.694 65.648C177.683 65.648 179.529 65.5531 181.329 65.0307ZM174.605 64.6508C172.001 61.2318 172.996 54.9162 175.647 51.7346C176.783 50.3575 178.298 49.5978 179.861 49.6453C181.471 49.6927 183.033 50.595 184.075 52.1145C185.684 54.3939 186.205 57.338 185.353 59.8073C184.643 61.8492 183.128 63.3687 180.997 63.986C179.009 64.6508 176.783 64.6508 174.605 64.6508ZM205.759 55.8184C205.428 56.2458 205.096 56.6257 204.717 57.1006C200.456 62.324 195.106 68.8296 189.235 71.4888C184.879 73.4358 179.482 73.3883 174.795 71.2514C171.291 69.6844 168.593 67.1201 167.314 64.1285C169.729 64.9832 172.001 65.5056 174.274 65.648C175.978 67.3101 177.588 68.4972 179.813 69.162C182.228 69.8743 184.69 69.8268 186.821 69.0196C191.555 67.2151 193.354 61.9441 193.118 57.5279C192.928 54.2039 191.413 51.3073 189.945 48.5056C188.904 46.5112 187.862 44.5168 187.294 42.3324C187.199 41.9525 187.105 41.4777 186.963 41.0503C186.347 38.5335 185.59 35.3994 183.696 33.7374C181.376 31.743 177.494 31.743 175.221 33.7374C173.09 35.5419 172.475 38.2486 171.907 40.8603C171.812 41.3352 171.717 41.7626 171.575 42.2374C170.96 44.6117 169.871 46.9385 168.782 49.1229C167.267 52.2095 165.752 55.3911 165.515 58.8575C165.42 60.0922 165.515 61.2793 165.752 62.4665C161.822 60.757 158.082 58.3827 154.531 56.0559V26.1397H205.806V55.8184H205.759Z" fill="#161616"/>
</svg>
