<svg width="37" height="36" viewBox="0 0 37 36" fill="none" xmlns="http://www.w3.org/2000/svg">
<path d="M33.5 12.912V25.125C33.5001 26.3702 33.0237 27.5682 32.1685 28.4733C31.3133 29.3785 30.1442 29.922 28.901 29.9925L28.625 30H8.375C7.12979 30.0001 5.93176 29.5237 5.02665 28.6685C4.12155 27.8133 3.578 26.6442 3.5075 25.401L3.5 25.125V12.912L17.978 20.496C18.1391 20.5804 18.3182 20.6244 18.5 20.6244C18.6818 20.6244 18.8609 20.5804 19.022 20.496L33.5 12.912ZM8.375 6H28.625C29.8334 5.99985 30.9987 6.44849 31.8951 7.2589C32.7914 8.06931 33.3548 9.18372 33.476 10.386L18.5 18.231L3.524 10.386C3.64029 9.23147 4.16457 8.15628 5.00262 7.35369C5.84068 6.55111 6.93752 6.07378 8.096 6.0075L8.375 6H28.625H8.375Z" fill="#767620"/>
</svg>
