<svg width="37" height="36" viewBox="0 0 37 36" fill="none" xmlns="http://www.w3.org/2000/svg">
<path d="M31.0856 25.2853C31.0255 24.9138 30.7926 24.5962 30.4437 24.4076L25.2831 21.367L25.2406 21.3433C25.0242 21.235 24.7853 21.1795 24.5433 21.1813C24.111 21.1813 23.698 21.3451 23.4115 21.6324L21.8883 23.1562C21.8232 23.2182 21.6108 23.3078 21.5463 23.311C21.5287 23.3096 19.774 23.1832 16.5438 19.9526C13.3192 16.7288 13.1824 14.9688 13.1814 14.9688C13.1832 14.8788 13.2717 14.6671 13.3347 14.6016L14.6336 13.303C15.0912 12.8444 15.2283 12.0841 14.9569 11.4951L12.0884 6.09764C11.88 5.66852 11.475 5.40356 11.0257 5.40356C10.7078 5.40356 10.4011 5.53532 10.1613 5.77472L6.62071 9.3074C6.28123 9.64508 5.98891 10.2355 5.92519 10.7107C5.89423 10.9378 5.26603 16.3602 12.7 23.7952C19.0112 30.1057 23.9324 30.596 25.2914 30.596C25.4569 30.5981 25.6224 30.5896 25.7868 30.5704C26.2605 30.5071 26.8502 30.2155 27.1875 29.8774L30.7252 26.3401C31.014 26.0499 31.1457 25.6665 31.0856 25.2853Z" fill="#767620"/>
</svg>
