<svg width="1165" height="917" viewBox="0 0 1165 917" fill="none" xmlns="http://www.w3.org/2000/svg">
<path d="M-50.714 640.065C-58.1951 618.792 -66.2883 595.894 -65.418 572.237C-64.5476 548.58 -50.385 525.392 -32.1837 511.317C-11.8257 495.521 13.6265 489.023 37.8246 486.04C89.9378 479.677 140.89 488.749 191.826 493.15C194.411 493.371 196.705 493.424 199.29 493.645C260.245 497.473 323.846 496.046 381.189 468.543C436.452 441.958 472.807 391.741 460.627 329.609C454.323 297.572 432.219 272.094 405.74 255.535C335.605 211.228 245.586 182.567 159.73 192.337C139.432 194.605 116.443 204.22 111.274 227.938C108.338 241.078 111.337 254.677 117.808 265.619C132.158 290.433 161.97 302.559 190.36 299.029C218.749 295.499 245.929 277.283 265.231 253.248C305.67 201.998 308.969 131.849 297.539 73.1166C269.553 -71.0431 171.178 -169.801 82.7296 -273" stroke="#D3D360" stroke-miterlimit="10"/>
<path d="M1276.87 310.275C1284.35 331.548 1292.44 354.446 1291.57 378.103C1290.7 401.76 1276.54 424.948 1258.34 439.022C1237.98 454.819 1212.53 461.316 1188.33 464.3C1136.22 470.663 1085.27 461.591 1034.33 457.19C1031.75 456.969 1029.45 456.916 1026.87 456.695C965.911 452.867 902.31 454.293 844.967 481.797C789.704 508.382 753.349 558.598 765.529 620.731C771.833 652.768 793.937 678.245 820.416 694.804C890.551 739.112 980.57 767.773 1066.43 758.003C1086.72 755.735 1109.71 746.12 1114.88 722.401C1117.82 709.262 1114.82 695.663 1108.35 684.721C1094 659.907 1064.19 647.78 1035.8 651.311C1007.41 654.841 980.227 673.057 960.925 697.092C920.486 748.341 917.187 818.491 928.617 877.223C956.603 1021.38 1054.98 1120.14 1143.43 1223.34" stroke="#D3D360" stroke-miterlimit="10"/>
</svg>
