<svg width="31" height="30" viewBox="0 0 31 30" fill="none" xmlns="http://www.w3.org/2000/svg">
<path d="M15.991 0C13.0243 0 10.1242 0.879735 7.65745 2.52796C5.19071 4.17618 3.26813 6.51886 2.13281 9.25975C0.997497 12.0006 0.700447 15.0166 1.27922 17.9264C1.858 20.8361 3.28661 23.5088 5.3844 25.6066C7.48219 27.7044 10.1549 29.133 13.0646 29.7118C15.9744 30.2906 18.9904 29.9935 21.7313 28.8582C24.4721 27.7229 26.8148 25.8003 28.463 23.3336C30.1113 20.8668 30.991 17.9667 30.991 15C30.991 13.0302 30.603 11.0796 29.8492 9.25975C29.0954 7.43986 27.9905 5.78628 26.5976 4.3934C25.2047 3.00052 23.5511 1.89563 21.7313 1.14181C19.9114 0.387987 17.9608 0 15.991 0ZM20.761 22.728C20.705 22.8681 20.6197 22.9947 20.5108 23.0991C20.4018 23.2035 20.2718 23.2834 20.1295 23.3334C19.9871 23.3835 19.8357 23.4024 19.6853 23.3891C19.535 23.3757 19.3893 23.3303 19.258 23.256L15.1855 20.091L12.5725 22.503C12.5119 22.5478 12.4409 22.5766 12.3662 22.5868C12.2915 22.5971 12.2155 22.5883 12.145 22.5615L12.646 18.078L12.661 18.0915L12.6715 18.003C12.6715 18.003 19.999 11.331 20.2975 11.0475C20.6005 10.764 20.5 10.7025 20.5 10.7025C20.518 10.3575 19.9585 10.7025 19.9585 10.7025L10.249 16.9485L6.2065 15.5715C6.2065 15.5715 5.5855 15.3495 5.527 14.859C5.4655 14.373 6.226 14.109 6.226 14.109L22.3015 7.722C22.3015 7.722 23.623 7.134 23.623 8.109L20.761 22.728Z" fill="#8F8F2D"/>
</svg>
