<svg width="28" height="28" viewBox="0 0 28 28" fill="none" xmlns="http://www.w3.org/2000/svg">
<path d="M27.4205 8.45756C27.4054 7.32149 27.1927 6.19672 26.792 5.13356C26.4445 4.23679 25.9138 3.42235 25.2338 2.7423C24.5537 2.06225 23.7393 1.53153 22.8425 1.18406C21.793 0.790093 20.6843 0.57707 19.5635 0.554058C18.1205 0.489558 17.663 0.471558 14 0.471558C10.337 0.471558 9.86751 0.471558 8.43501 0.554058C7.31475 0.577239 6.20654 0.79026 5.15751 1.18406C4.2606 1.53129 3.44605 2.06192 2.76596 2.74201C2.08588 3.42209 1.55525 4.23664 1.20801 5.13356C0.81326 6.18226 0.600699 7.29072 0.579514 8.41106C0.515014 9.85556 0.495514 10.3131 0.495514 13.9761C0.495514 17.6391 0.495514 18.1071 0.579514 19.5411C0.602014 20.6631 0.813514 21.7701 1.20801 22.8216C1.55583 23.7182 2.08686 24.5324 2.76717 25.2122C3.44748 25.892 4.26211 26.4224 5.15901 26.7696C6.20516 27.1794 7.31357 27.4076 8.43651 27.4446C9.88101 27.5091 10.3385 27.5286 14.0015 27.5286C17.6645 27.5286 18.134 27.5286 19.5665 27.4446C20.6872 27.4225 21.7961 27.21 22.8455 26.8161C23.7421 26.4682 24.5563 25.9373 25.2363 25.2573C25.9163 24.5773 26.4471 23.7631 26.795 22.8666C27.1895 21.8166 27.401 20.7096 27.4235 19.5861C27.488 18.1431 27.5075 17.6856 27.5075 14.0211C27.5045 10.3581 27.5045 9.89306 27.4205 8.45756ZM13.991 20.9031C10.16 20.9031 7.05651 17.7996 7.05651 13.9686C7.05651 10.1376 10.16 7.03406 13.991 7.03406C15.8302 7.03406 17.594 7.76465 18.8944 9.06513C20.1949 10.3656 20.9255 12.1294 20.9255 13.9686C20.9255 15.8077 20.1949 17.5715 18.8944 18.872C17.594 20.1725 15.8302 20.9031 13.991 20.9031ZM21.2015 8.39456C20.306 8.39456 19.5845 7.67156 19.5845 6.77756C19.5845 6.56531 19.6263 6.35514 19.7075 6.15905C19.7888 5.96295 19.9078 5.78478 20.0579 5.6347C20.208 5.48461 20.3862 5.36556 20.5823 5.28434C20.7783 5.20311 20.9885 5.16131 21.2008 5.16131C21.413 5.16131 21.6232 5.20311 21.8193 5.28434C22.0154 5.36556 22.1935 5.48461 22.3436 5.6347C22.4937 5.78478 22.6128 5.96295 22.694 6.15905C22.7752 6.35514 22.817 6.56531 22.817 6.77756C22.817 7.67156 22.094 8.39456 21.2015 8.39456Z" fill="#8F8F2D"/>
<path d="M13.991 18.473C16.4788 18.473 18.4955 16.4563 18.4955 13.9685C18.4955 11.4807 16.4788 9.46399 13.991 9.46399C11.5032 9.46399 9.48651 11.4807 9.48651 13.9685C9.48651 16.4563 11.5032 18.473 13.991 18.473Z" fill="#8F8F2D"/>
</svg>
